<svg viewBox="0 0 463.57 695.45" aria-labelledby="logo-id logo-desc" role="img">
	<title id="logo-id">Chill Out Cafe</title>
	<desc id="logo-desc">Thai Cuisine and American Breakfast</desc>
	<defs>
		<style>.cls-1,.cls-11,.cls-13,.cls-2,.cls-3,.cls-4,.cls-6,.cls-7,.cls-8,.cls-9{fill:#fff;}.cls-2{font-size:47px;letter-spacing:0.03em;}.cls-11,.cls-13,.cls-2,.cls-3,.cls-4,.cls-6,.cls-7,.cls-8,.cls-9{font-family:Palatino-Roman, Palatino;}.cls-3,.cls-4,.cls-6{font-size:61.21px;}.cls-3{letter-spacing:0.03em;}.cls-4{letter-spacing:0.03em;}.cls-5{letter-spacing:0.13em;}.cls-6{letter-spacing:0.03em;}.cls-7{font-size:48px;letter-spacing:0.06em;}.cls-8{font-size:39px;letter-spacing:-0.04em;}.cls-11,.cls-13,.cls-9{font-size:50px;}.cls-9{letter-spacing:-0.03em;}.cls-10{letter-spacing:-0.03em;}.cls-11{letter-spacing:0.02em;}.cls-12{font-size:40px;letter-spacing:-0.04em;}.cls-13{letter-spacing:-0.02em;}.cls-14,.cls-15,.cls-16{fill:none;stroke:#fff;stroke-linecap:round;}.cls-14,.cls-15{stroke-miterlimit:10;}.cls-14,.cls-16{stroke-width:7px;}.cls-15{stroke-width:8px;}.cls-16{stroke-linejoin:round;}</style>
	</defs>
	<path class="cls-1" d="M92,283.42c.52-3.92-.27-10.22,3.64-11.33,1.82-.52,5.63,1.68,7.59,2a80.82,80.82,0,0,0,9.33.82c2.39.13,10.17,1.12,8.7-3.88-1-3.39-9.36-5.49-12.21-6.21-11.15-2.85-23.16-3.15-33.81,1.5-3.54,1.54-8.77,3.7-7,8.34S76.76,282,81,283.5c21.7,7.71,46.94,3.29,68.86-1.5,24.27-5.31,116.19-39.16,139.5-45.86,22.61-6.5,45.35-13.75,69-15,20.38-1.06,43.08,3.42,49.92,25.38,6.69,21.51-6.9,43.61-4.37,65.43,1,8.95,5.12,18.22-4.76,23.33-9.51,4.91-20.5,5.3-30.93,4.22-7.74-.8-24-3-27.47-11.47-1.07-2.62.07-8.84,2.06-11.06,2.67-3,11.4-2,15.1-1.94,2.89.06,14.41-.39,16.21,2.28.86,1.28-.72,6.16-1.25,7.47-1.35,3.32-1.85,3.28-5.45,2.7-5.54-.9-10.85-2.87-16.55-2.45-4,.29-9.29,2.29-5,6.44,3.46,3.33,11.12,3.81,15.57,4.48a82.43,82.43,0,0,0,18,.77c7.17-.51,25.17-5.4,15-14.81-16-14.9-44-9.88-63-5.48C308.46,321.8,218.5,357.39,195.23,366c-11.4,4.21-22.69,9.6-34.33,13.05-10.5,3.12-22.68.47-33.57,1.86-11.5,1.46-20.85,7.25-31.88,9.71-9.73,2.16-20.89,1.59-25.91-8.13s-8.09-21-11-31.38c-3.15-11.15-.58-23.78,1.68-34.86,2.49-12.13,3.1-23.71.94-36-2.11-12,3.55-16.33,15-18.54a73.22,73.22,0,0,1,35.8,2.51c3.95,1.34,8.68,3.45,11.29,6.85,2.33,3,2.6,9.17-.41,12.06s-9.67,1.68-13.43,1.81C103.72,285.18,97.42,285.42,92,283.42Z"/>

	<path class="cls-1" d="M298.14,453.9c-3.26,1.15-6.12,2.89-9.26,4.3s-6.95,1.46-3.56-2.53c2.12-2.49,7.42-3.94,10.29-5.34,3.95-1.93,8-4.34,12.22-5.62-1.77-2.36-4.38-.82-6.72-.9-.06-5.54,2.49-10.69,2.73-16.2-10.23,1.13-21.48,4.67-31.23-.64-3.86-2.11-7.83-5.92-8.85-10.33-.56-2.44,1.2-12.06,5.93-8.13,2.14,1.79-.61,7.37.5,10.17,2,5.06,7.3,6.11,12.11,6.63,5.58.6,11.56.79,17.05-.54,5.69-1.38,5.82-4.44,7.33-9.71,5.93-20.81,19.12-41,38.09-52.17,7.66-4.5,19.62-8.46,26.14.06,6,7.88.61,19.31-4.5,26.16a89.62,89.62,0,0,1-28,23.89c-4.25,2.35-11.67,5.4-16.06,8-.95,4.31-2.5,11.71-2.5,15.87,15.27-4.27,29.62-11.47,44.87-15.92,5.1-1.49,12.33-3.62,19.21-4.18,11.47-.93,21.72,3.87,20.16,7.17-1.19,2-17.83,2.11-26.56,3.88a310.75,310.75,0,0,0-30.51,7.67c-8.13,2.53-20.53,6.74-27.87,10.15a26.71,26.71,0,0,0-2.5,8.91c-.71,5.13-1.79,10.2-2.77,15.28-1.8,9.32-3.6,18.66-5.66,27.92-1.07,4.79-2.24,9.57-3.75,14.24-1.23,3.81-3.48,10.49-5.15,14.57,0,0-.49.71,3,2.5,2.14,1.09,4.23,2.32,6.29,3.55a68.81,68.81,0,0,1,9.84,6.83c2.95,2.53,6.23,5.5,6.19,9.71,0,2.73-2.45,6.77-5.78,4.23-3.09-2.36,1.33-5.38.5-8.27-.75-2.61-5-4.71-7-6.09-3.91-2.73-7.92-5.55-12.42-7.24a8.72,8.72,0,0,0-2.58-.8c-1.56,1.06-3.14,3.11-5.43,6.14a108.34,108.34,0,0,1-40,33c-13.54,6.46-36.68,11.73-47.48-2.46-11.1-14.58,4.29-29.78,16.42-36.48A78.92,78.92,0,0,1,251.6,522a111.45,111.45,0,0,1,15.72-.26c3.26.15,14.19.4,16.62.9,1.88-3.12,3.42-12.35,4.25-15.8,1.31-5.45,3-11.28,3.06-16.92-6.31,4.87-12.35,9.86-20.42,11.41s-12.28-2.47-16-9.11c-6.15,9.73-19.15,18.32-31,17-13.27-1.47-14-14.29-12.2-25.14,2-11.78,7.61-23.45,16.16-31.82,4.27-4.18,10.37-8.78,16.31-10.26,6.86-1.7,11.61,3.6,16.25,7.7l2.88-9.7a98.22,98.22,0,0,0,10.44,10.66c2.12,1.77,3.91,2.34,4.28,4.74.33,2.23-1.34,5.78-1.84,8-1.28,5.74-2.3,11.5-3.07,17.32-.4,3-1.89,9.5,1,12,4.32,3.84,16.53-6.72,18.38-10.25C296.51,474.74,297.47,462.57,298.14,453.9Zm-15.25,73.29c-17.42-2.43-34.66-1.15-51.06,5.59-11.31,4.64-35,20.92-20,34.17,11.51,10.16,31.87,3.22,43.44-3.36C269.49,555.48,278.59,542.8,282.89,527.19Zm40.94-112.27c12.07-4.51,21.56-11.49,29-22.08,4-5.64,13.05-22.56,5.61-28.44-8-6.29-19.46,9.31-22.8,14.86A89.74,89.74,0,0,0,323.83,414.92ZM233.41,484c.19,4-.55,9.93,3.46,12.49,3.72,2.38,7.59-.14,10.66-2.27,5.45-3.77,5.32-4.85,5.19-10.89-.11-5.65,1.63-12.15,3.23-17.52,1.4-4.71,3.67-8.83.68-13.46-3.19-4.94-7.38-3.52-11,.35C238.52,460.38,233.8,473.63,233.41,484Zm-6.06-108.7c-4.45,5.05-8.58,10.9-14.92,13.75-6.76,3-15.19,1.7-22.28.74-16.09-2.2-31.72-5.82-48.08-5.28-29.29,1-58.72,16.67-72.4,43.3-13.89,27.06-7.26,58.85,12.85,80.77,19.55,21.3,49.38,31,77.63,24.25,14.83-3.54,28.64-13.14,36.41-26.31a38.52,38.52,0,0,0,5.6-22c-.15-3.29-3.2-21.38-9.63-18.78,5.09,13,6.5,26.36-.95,38.95-6.74,11.36-18.05,18.65-30.73,21.69-26,6.22-52.95-1.09-63-28-9.83-26.44-6.06-56.54,8.54-80.45,6.2-10.15,16.29-20.06,28.4-22.42,12.49-2.44,26.42,2.72,37.34,8.36,12.32,6.37,27.87,13.9,41.45,6.74C226.23,403.86,231,387.42,229,374A13.51,13.51,0,0,0,227.35,375.28ZM347.67,477.89c1.24,9.3,8.35,19.69,18.78,18.09a33.09,33.09,0,0,0,13.3-5.79c1.82-1.27,3.56-2.71,5.29-4.1,1.34-1.08,4.43-5.09,6-5.61,4.13-1.35,2.16,4.07.34,6a61.93,61.93,0,0,1-13.87,10.67,66.13,66.13,0,0,1-32.36,8.68c-24.33-.11-26.75-26.29-15.15-43,5.76-8.29,15.35-15.14,24.49-19.23,6.73-3,21.53-7.35,27.3-.34,5.33,6.49.52,18.54-4.51,23.74C369.46,475.14,357.94,475.68,347.67,477.89Zm.53-5.57c6,1,12.63-1.52,17.09-5.53,3.19-2.87,7.53-10.67,4-14.67s-10.1.28-12.95,2.95C351.57,459.56,349.31,466,348.2,472.32Z"/>
	
	<path d="M152.3,356a26.39,26.39,0,0,1,4,.71,2,2,0,0,1,1.11,1.5,1.92,1.92,0,0,1-1.12,1.44q-7.33,1.81-14.71,3.42c-1,.22-2.39.1-2.44-1.19a3,3,0,0,1,1.55-2.27c2.76-1,3.26-3.06,3.3-5.69.09-5.49.42-11,.63-16.46,0-.66-.09-1.32-.17-2.37l-15.34,2.75c-.23,7.54-.45,14.93-.68,22.48a28.23,28.23,0,0,1,4.35,1.33c.69.32,1.09,1.27,1.62,1.93-.71.47-1.38,1.28-2.12,1.36-4.9.56-9.81,1-14.71,1.43-1.09.1-2.13.07-2.47-1.23s.59-1.84,1.54-2.33a15.75,15.75,0,0,1,1.56-.73,3.25,3.25,0,0,0,2.25-3.46c0-3.2.07-6.41.13-9.61q.36-17,.71-34a15.12,15.12,0,0,0-.15-1.52,19.27,19.27,0,0,1-3.54-1c-.69-.34-1.12-1.23-1.66-1.87.69-.45,1.36-.94,2.09-1.32a2,2,0,0,1,1,0,21.92,21.92,0,0,0,11.41-1.77,6.12,6.12,0,0,1,2-.59,12,12,0,0,1,2.21.24c-.19.81-.36,1.63-.6,2.43a.87.87,0,0,1-.51.44c-3.74,1.16-4,4.13-4,7.37-.06,5.36-.32,10.71-.51,16.55l15.57-2.65v-22.2a25.21,25.21,0,0,1-3.77-.88,2.44,2.44,0,0,1-1.43-1.58c0-.51.79-1.19,1.37-1.58a3.22,3.22,0,0,1,1.66-.36,31.34,31.34,0,0,0,12.24-3.09,3.79,3.79,0,0,1,1.63-.46,1.93,1.93,0,0,1,1.4.69,1.7,1.7,0,0,1-.19,1.54,6.88,6.88,0,0,1-2.26,2.05c-2.07.9-2.42,2.58-2.46,4.48q-.21,10.31-.39,20.61c-.06,3.43-.11,6.87-.12,10.31C152.28,345.85,152.3,350.86,152.3,356Zm152.36-85.94c-.32-4.85-1.35-9.52-4.09-13.66-3.55-5.36-9.47-8.05-15.4-6.73-5.73,1.28-10.09,4.74-13.58,9.32-3.11,4.1-4.28,9.05-5.83,13.84-3.27,10.14-2.15,19.93,2.43,29.35a22.71,22.71,0,0,0,5,6.47,11.34,11.34,0,0,0,14.3,1.16,71.18,71.18,0,0,0,8.92-7.47,20.19,20.19,0,0,0,3.64-4.93,36.83,36.83,0,0,0,4.63-21.69C304.68,274,304.79,272,304.66,270.08Zm-9.77,24.41a18.67,18.67,0,0,1-7.29,11.32c-5,3.78-9.76,1.63-12.35-3.68a34.34,34.34,0,0,1-3.31-18c.43-5.46,1.1-10.92,1.85-16.35a18.32,18.32,0,0,1,7.9-12.8c4.42-3.1,9.07-2.64,11.68,2.82,2.88,6,3.56,12.47,3.77,21.29C296.62,282.74,296,288.67,294.89,294.49Zm16.75-41.9c-.51,9-1,18.06-1.59,27.09a29.07,29.07,0,0,0,3.34,14.89,20.16,20.16,0,0,0,3.81,5.24,8.63,8.63,0,0,0,8.52,2.51,18,18,0,0,0,12-9.87c3.28-6.43,3.55-13.46,4.25-20.38.77-7.63,1.22-15.29,1.74-22.95.13-2,.56-3.48,2.59-4.36a2.44,2.44,0,0,0,1.37-3.62c-5.7.57-11.55,2.59-17.55-.68,1.13,1.75,1.74,3.38,2.91,4.32s3,1.34,4.74,2c0,1.06,0,2.2,0,3.33-.05,4.93-.25,9.86-.14,14.79.18,8.16.08,16.24-2.69,24.09a14.06,14.06,0,0,1-4.82,6.87c-4.72,3.48-10.41,1.85-12.14-3.77A29.1,29.1,0,0,1,316.74,282c.63-10.4,1.7-20.77,2.55-31.16a3.1,3.1,0,0,1,2.54-3.15,4.84,4.84,0,0,0,3.47-2.94c-1.68-1.4-1.69-1.44-3-1.16-1.78.4-3.53,1-5.33,1.28-2.6.37-5.23.53-7.86.73-1.13.09-2.59-.1-2.74,1.38-.18,1.64,1.3,1.89,2.57,2.14.88.18,1.74.43,2.67.66C311.65,250.8,311.69,251.7,311.64,252.59Zm52.09,40c-.83.33-1.55.63-2.29.9-1.3.46-3,.94-2.67,2.56.4,1.79,2.27,1,3.55,1,4.12-.11,8.24-.3,12.36-.49a4.53,4.53,0,0,1,4.14,1.94c.6.79,1.18,1.84,2.7,1.83-2-4.58-5.26-7.12-9.72-7.75-.44-3.3,1.69-45.07,2.37-47.05a20.78,20.78,0,0,1,10.69,2.41c.85,2.81-.27,5.93,2.27,8.57a11,11,0,0,0,.84-2.4c.28-4.7.58-9.39.65-14.09a6.92,6.92,0,0,1,1.19-4.51,8.5,8.5,0,0,0,.8-1.63c-2.15.8-3.05,2.61-3.68,4.34a4,4,0,0,1-4.36,3c-7.68-.14-15.36-.39-23-.36-3.57,0-5.5-1.29-6.11-4.88a6.15,6.15,0,0,0-2.59-4.55,8.27,8.27,0,0,0,.21,1.76,15.25,15.25,0,0,1,.64,7.36c-.4,4.65-.21,9.36-.18,14.05,0,.5.52,1,.8,1.5a19.36,19.36,0,0,0,1.6-5.74c.2-1.32.52-2.44,1.94-3a24.09,24.09,0,0,1,10-1.93C365.16,261.41,364.45,276.94,363.73,292.57ZM105.74,312a39.21,39.21,0,0,0-4.53-1.58c-4.22-.91-8.57-1.12-12.38,1.13-7.23,4.27-11.3,11-12.91,19.05a36.44,36.44,0,0,0,3.75,24.62A28.6,28.6,0,0,0,88.14,365a14.06,14.06,0,0,0,11.32,3,18.49,18.49,0,0,0,9.42-5.4c1.09-1.1,1.86-2.37.23-4.2-1.08.76-2.18,1.5-3.23,2.29a10.58,10.58,0,0,1-7.67,2.47c-4.68-.54-7.59-3.63-9.71-7.41-3.69-6.58-4.63-13.84-4.28-21.25.14-3,1-5.86,1.35-8.8.52-4.13,2.75-7.16,5.79-9.8a5.76,5.76,0,0,1,4.41-1.45c4.43.25,8.14,3.41,9.69,8.5.82,2.72,1.4,5.53,2.11,8.29.24,1,.35,2.11,1.83,1.9,1.08-2.85,2.71-18.66,2.34-23.1a17.53,17.53,0,0,0-.67-2.6c-2.54,1.17-1.81,3.56-2.73,5.39C107.43,312.46,106.58,312.23,105.74,312ZM222.21,286.1q-.48,15.28-1,30.58a54.32,54.32,0,0,0-.12,5.84c.3,3.81.15,7.3-3.61,9.59-1,.63-1.92,1.72-.61,3.37,8.65-3,16.94-7.1,26.13-9.53,0,3.53,1.91,5.61,4.35,8.25-.22-1.22-.33-1.72-.39-2.23-.3-2.48-.77-5-.84-7.45-.1-4.12.09-8.25.08-12.38,0-1.18.32-2.56-1.12-3.4-1.7.61-1.4,2.19-1.72,3.43s-.23,2.64-.88,3.61c-3,4.46-6.58,8.26-11.87,10a7.51,7.51,0,0,1-2,0c.28-8.88.55-17.57.82-26.25.08-2.75.18-5.5.25-8.25.09-4,.27-8,.2-12a8.36,8.36,0,0,1,3.54-7c2.5-2,3.11-5.49,1.67-8.76a5,5,0,0,0-.53,1.33c-.19,2.58-1.5,4-4,4.94-3.74,1.41-7.32,3.25-11,5-1.42.66-3,1.28-3.16,3.19,1.55,1.92,3.45.69,5.79.65C222.22,281.31,222.28,283.71,222.21,286.1Zm-27-.32c-3.25,1.42-6.5,2.84-9.69,4.39-.6.29-.93,1.16-1.38,1.77a7.44,7.44,0,0,0,2.13,1.31,21.59,21.59,0,0,0,3.81.06c0,1.41,0,2.42,0,3.43-.13,6.07-.25,12.13-.43,18.2-.25,8.23-.62,16.46-.78,24.69,0,2.57-.48,4.62-2.78,6.19-1.08.73-3,1.9-1.86,3.52s2.75.05,4-.42c5.36-2,10.65-4.19,16-6.26,2-.78,4-1.45,6.05-2.16,1.22,4,2.16,5.61,4.82,7.9-2-4.19-1.26-8-1.26-11.71,0-3.31-.08-6.63-.15-9.95,0-1.19,0-2.44-1.51-3.54-.86,2.91-1.18,5.71-2.49,7.92s-9.84,9.33-12.85,9.45c-.09-.92-.2-1.49-.19-2.05.18-6.18.4-12.36.55-18.55.21-8.57.43-17.14.5-25.71,0-2.8.5-5.12,3-6.77,1.28-.84,2.14-2.11.82-4.35C199.37,284,197.27,284.87,195.2,285.78Zm-27.76,18.48c-.13,5.72-.31,11.44-.4,17.17q-.22,13.76-.32,27.5c0,2-.37,3.59-2.4,4.51a5.42,5.42,0,0,0-2.09,1.74,6.37,6.37,0,0,0-.6,2.13,5.76,5.76,0,0,0,2.19.3c2-.53,3.94-1.24,5.88-1.93,2.91-1,5.83-2,8.68-3.2.69-.29,1.09-1.26,1.63-1.91a8,8,0,0,0-2.1-1.29,19,19,0,0,0-3.34-.24c0-6.37-.09-12.32,0-18.27.16-8.48.5-16.95.69-25.43.07-3.33-.09-6.62,3.32-8.75a2.69,2.69,0,0,0,1.07-3.88,13.15,13.15,0,0,0-2.73,1.06,29.46,29.46,0,0,1-12.72,4.89,3.88,3.88,0,0,0-1.63.49c-.42.29-1,1-.87,1.31a2.07,2.07,0,0,0,1.19,1.39,33.89,33.89,0,0,0,4.35.38C167.34,303.14,167.45,303.7,167.44,304.26Z"/>
	
	<path class="cls-1" d="M297.14,279.05c-.52,3.69-1.11,9.62-2.25,15.44a18.67,18.67,0,0,1-7.29,11.32c-5,3.78-9.76,1.63-12.35-3.68a34.34,34.34,0,0,1-3.31-18c.43-5.46,1.1-10.92,1.85-16.35a18.32,18.32,0,0,1,7.9-12.8c4.42-3.1,9.07-2.64,11.68,2.82C296.25,263.76,296.93,270.23,297.14,279.05Z"/><text class="cls-2" transform="translate(38.93 623.77) scale(1.1 1)">T</text><text class="cls-3" transform="translate(72.22 623.77) scale(0.7)">HAI</text><text class="cls-4" transform="translate(159.61 623.77)"> </text><text class="cls-3" transform="translate(176.81 623.77) scale(0.7)">CUISIN<tspan class="cls-5" x="226.63" y="0">E</tspan></text><text class="cls-6" transform="translate(367.24 623.77)"> </text><text class="cls-7" transform="translate(384.44 623.77) scale(1.09 1)">&amp;</text><text class="cls-8" transform="translate(10.3 671.33) scale(1.09 1)">A</text><text class="cls-9" transform="translate(41.66 671.33) scale(0.76 0.7)">MERICA<tspan class="cls-10" x="192.22" y="0">N</tspan></text><text class="cls-11" transform="translate(218.96 671.33) scale(1.09 1)"> <tspan class="cls-12" x="13.55" y="0">B</tspan></text><text class="cls-13" transform="translate(258.62 671.33) scale(0.76 0.7)">REAKFAST</text>
	
	<path class="cls-14" d="M312.3,101c5.33,40.67-7.34,66-23.34,79.33,0,0-22,22-54.66,17.34S201.63,180,188.3,172s-38-12.73-44-20.07S138,132.43,147,126.1s18.67-7.1,22.67-6.43"/><path class="cls-15" d="M401.63,76.5c6.5.83,23-3.5,34.33-7.5s19.34-12.67,22.67-20-3-8-7-5.33-32.17,11.66-49,14.66c-13.39,2.39-33.74,2.11-50,7C333.8,71,319.8,86,315.13,96.67"/><path class="cls-14" d="M172.3,109.67c7.33-12,14.66-20.67,24.66-26S236.63,69.33,254.8,69c15.34-.28,29.5,1.33,38.83,7.33s12,8.67,12,8.67"/><path class="cls-16" d="M226.66,196.39a8.92,8.92,0,0,0-3.53,8.61c.67,6,8.67,9.83,17.83,10.67,10.65,1,26-1.34,38-7.34s14.34-15.4,14.34-15.4a23.09,23.09,0,0,1-4.34-12.6"/><path class="cls-15" d="M342.3,154.5c.5,2.5,6.83,3.83,3.75,10-3.6,7.2-20.5,4.1-23.75,3.85s-10.5,3.15-10.5,3.15"/><path class="cls-15" d="M380.4,130.86c1.75,3,4.65,8.89,1.15,12.64s-26.25,4.75-38,5.25-19,6-19,6"/><path class="cls-15" d="M345.55,134.5a8.87,8.87,0,0,1,6.25-3.5c4-.25,10.25-1.75,20-1.5s21.87,0,25.33-3.33c4.5-4.34,2.33-11.34,1.17-14.17"/><path class="cls-15" d="M357.05,116.5a25.81,25.81,0,0,1,14-4.25c8.75-.25,20.75,1,27.25-.25s11.75-5,12.75-8.75.75-12.15.75-12.15"/><path class="cls-15" d="M378.8,94.25s2.25-2.5,7.25-3.5,21,.25,28.25,0,23-5.76,21.33-21.08"/><path class="cls-14" d="M158.3,114s-8.25-11.25-28-16.5-46,2.25-70.75,3-45.5-1.25-49.25-2.25-7.25,2.25-6.75,5S15.3,115.5,27.8,118s33.58,2.92,42.83,1.17"/><path class="cls-14" d="M42.3,120s-.75,9.5,9.25,14.5,16.75-2.25,24.25-3.75,20.5-4,28-1"/><path class="cls-14" d="M64.3,135.75s1.5,11.75,10.25,15.5,16.5-1.5,23.5-3,22.25-5.5,29-2.75"/><path class="cls-14" d="M86.05,152.25a10.77,10.77,0,0,0,.5,10.75c3.5,5.75,13.5,2.5,19,1.75s19.25-4.75,24.25-5a117.19,117.19,0,0,1,13,.5"/><path class="cls-14" d="M109.3,164.25s-3.83,7.8,0,14c2.83,4.58,14.25,1.5,22.5-1.25s17.75-6.75,38.5-3"/><path class="cls-14" d="M152.8,172.75a20.24,20.24,0,0,1-.5,6c-.75,2.5-4.25,4.5-1.25,8.75s17.75-1,23.5-1.75,14.5-.75,19.75,1"/><path class="cls-14" d="M64.55,60.75c7.5,9.75,16.5,12.75,26.5,13.75s29-5.75,35.25-8.5,25.75-11.25,31.75-8,3.43,15.11,11.75,19.83c6.16,3.5,21.83-1.66,31.25-4.33,6.92-2,.6,7.49.6,7.49"/><path class="cls-14" d="M91.55,32c8.25,14,25.23,18.33,33.75,17.25,19-2.42,56-18.25,61-10.5s0,14.25,7.25,20,16.75,0,22.5-.5,14.75,4,14.75,4"/><path class="cls-14" d="M166.55,3.5s4.5,11.5,19.75,17.25,39.75-5.5,48.25.5-4,14.31,1.58,25.42c4.33,8.66,23.67,1.5,31.42,8.08,8.66,7.36,6.75,6.5,6.75,6.5"/><path class="cls-14" d="M173.8,135.25s-9.5-.5-9.5,5,8.5,6.5,11,8a29.59,29.59,0,0,1,5.25,4.5"/><path class="cls-1" d="M303.42,96.25c-6-13.65-35.16-23.8-76.75-12.38-35.5,9.75-46.69,26.63-44.87,38.88,2.25,15.12,31.75,28.25,73.75,16.75C303,126.51,306.92,104.25,303.42,96.25Zm-94,20.27a2.74,2.74,0,0,1,1.24-1.83c1.51-1,4-.5,5-.26a2,2,0,0,1-1,3.89l-.46-.1a13,13,0,0,0,3.59,2.57c2.91,1.45,8,3.37,10.16,3.52-.22-.49-.57-1.11-.82-1.55-1-1.83-2.21-3.91-1.51-6,1-2.91,5-2.29,11.12-1.36,2.72.42,7.22,1.1,8.39.66.65-1-1.07-5.54-3.52-9.17a2,2,0,1,1,3.31-2.24c6.41,9.47,4,13.3,3,14.25-1.79,1.88-5.66,1.4-11.82.46a48.19,48.19,0,0,0-6.62-.74,15.41,15.41,0,0,0,1.09,2.19c1.08,1.91,2.55,4.52.57,6.5a4.13,4.13,0,0,1-3,1c-4,0-10-2.81-12.18-3.89C212.5,122.6,208.93,119.39,209.45,116.52Zm49.79,13.74c-1.57,1.63-5,1.58-13.16,1.05-2.85-.19-7.07-.46-8.39-.19a13.23,13.23,0,0,0,0,3.14c.19,2.33.38,4.74-1.24,6.13a6.11,6.11,0,0,1-3.94,1c-4.68,0-11.29-2.21-12.74-2.81-3.16-1.3-5.68-3.6-6.58-6a4.45,4.45,0,0,1,0-3.62c1.45-2.89,5.37-2.53,8.29-1.33a2,2,0,1,1-1.51,3.7,6.39,6.39,0,0,0-3.21-.53c0,.56,1.19,2.73,4.48,4.08,4.27,1.76,10.77,2.88,12.48,2.45a15.38,15.38,0,0,0-.06-2.76c-.2-2.41-.42-5.14,1.43-6.64,1.42-1.15,4.19-1.09,11.18-.63,3.31.21,8.79.57,10.11.06,1.39-1.76-1-6.85-2.68-9.25a2,2,0,1,1,3.3-2.26C257.75,116.86,263.62,125.72,259.24,130.26Z"/>
</svg>