<svg class="page-heading__svg" viewBox="0 0 108.73 69.59" role="presentation">
	<path d="M33.93,22.83c-2.22-.63-5.18,2-5,5.66s4.6,6,6.52,6.29A11.83,11.83,0,0,0,43,32.89a11.2,11.2,0,0,0,2.24-14.53S40.4,7.54,28.08,14.21c-4.73,2.57-6.41,6.38-6.08,10.88-10.67-8.16-22,1-22,1a24.81,24.81,0,0,1,12.83,4.67c6.17,4.5,11.17,11,14.84,15.5s13.61,15.6,26.79,20.32S85,71.69,97.15,58.82c7.47-7.91,17.35-26.17,7.35-41.73A36.08,36.08,0,0,0,77.49.32C55.11-2.4,47.12,12.87,47.12,24.07,47.12,37,60.23,52.91,82.3,47.4c10.24-2.55,10.79-11.63,10.82-17C93.16,20,88.63,13.13,78.26,13c-8-.13-14.33,8.85-10.68,16.2a10.76,10.76,0,0,0,12.15,5.76"/>
</svg>